<svg width="205" height="38" viewBox="0 0 205 38" fill="none" xmlns="http://www.w3.org/2000/svg">
<path d="M18.6182 37.2364C28.901 37.2364 37.2364 28.901 37.2364 18.6182V5.58545C37.2364 4.1041 36.6479 2.68342 35.6004 1.63594C34.553 0.588466 33.1323 0 31.6509 0L19.5491 0V8.1678C19.5491 10.0315 19.6627 11.9622 20.6401 13.5485C21.3399 14.6853 22.276 15.6583 23.3849 16.4015C24.4938 17.1447 25.7496 17.6407 27.0671 17.8558L27.4237 17.9135C27.5707 17.9637 27.6983 18.0587 27.7886 18.185C27.879 18.3114 27.9275 18.4628 27.9275 18.6182C27.9275 18.7735 27.879 18.925 27.7886 19.0513C27.6983 19.1777 27.5707 19.2726 27.4237 19.3229L27.0671 19.3806C25.1422 19.6951 23.3646 20.6062 21.9854 21.9854C20.6062 23.3646 19.6951 25.1422 19.3806 27.0671L19.3229 27.4237C19.2727 27.5706 19.1777 27.6982 19.0513 27.7886C18.925 27.8789 18.7735 27.9275 18.6182 27.9275C18.4629 27.9275 18.3114 27.8789 18.1851 27.7886C18.0587 27.6982 17.9637 27.5706 17.9135 27.4237L17.8558 27.0671C17.6406 25.7496 17.1446 24.4939 16.4014 23.3849C15.6583 22.276 14.6853 21.3399 13.5485 20.6401C11.9622 19.6627 10.0315 19.5491 8.16782 19.5491H0.0223618C0.509227 29.399 8.64817 37.2364 18.6182 37.2364Z" fill="white"/>
<path d="M0 17.6873H8.1678C10.0315 17.6873 11.9622 17.5737 13.5485 16.5962C14.7884 15.8322 15.8322 14.7884 16.5962 13.5485C17.5737 11.9622 17.6873 10.0315 17.6873 8.1678V0H5.58545C4.1041 0 2.68342 0.588466 1.63594 1.63594C0.588466 2.68342 0 4.1041 0 5.58545L0 17.6873ZM43.2454 1.86182C43.2454 2.3556 43.0492 2.82916 42.7001 3.17832C42.3509 3.52748 41.8773 3.72364 41.3836 3.72364C40.8898 3.72364 40.4162 3.52748 40.0671 3.17832C39.7179 2.82916 39.5217 2.3556 39.5217 1.86182C39.5217 1.36803 39.7179 0.894473 40.0671 0.545314C40.4162 0.196155 40.8898 0 41.3836 0C41.8773 0 42.3509 0.196155 42.7001 0.545314C43.0492 0.894473 43.2454 1.36803 43.2454 1.86182ZM197.084 11.2677C202.288 11.2677 204.8 14.9029 204.8 19.1134V27.0215H199.353V20.0518C199.353 18.1434 198.657 16.5683 196.66 16.5683C194.663 16.5683 193.998 18.1434 193.998 20.0518V27.0206H188.551V20.0518C188.551 18.1434 187.885 16.5683 185.888 16.5683C183.891 16.5683 183.195 18.1434 183.195 20.0518V27.0206H177.749V19.1125C177.749 14.902 180.259 11.2668 185.464 11.2668C188.309 11.2668 190.366 12.3876 191.305 14.2355C192.303 12.3876 194.482 11.2659 197.084 11.2659V11.2677ZM167.961 22.1743C169.716 22.1743 170.473 20.5684 170.473 18.6591V11.8728H175.919V19.3257C175.919 23.7791 173.317 27.4758 167.961 27.4758C162.605 27.4758 160.003 23.7801 160.003 19.3257V11.8728H165.45V18.6591C165.45 20.5675 166.205 22.1743 167.961 22.1743ZM151.994 27.5056C148.575 27.5056 146.366 26.3242 145.064 24.0221L148.999 21.8103C149.543 22.7793 150.359 23.2644 151.721 23.2644C152.841 23.2644 153.355 22.8706 153.355 22.3856C153.355 20.5377 145.367 22.4163 145.367 16.5395C145.367 13.6909 147.787 11.3887 151.903 11.3887C155.504 11.3887 157.471 13.1454 158.349 14.8424L154.415 17.084C154.082 16.1755 153.053 15.63 152.024 15.63C151.237 15.63 150.814 15.9632 150.814 16.4175C150.814 18.2961 158.802 16.5693 158.802 22.2646C158.802 25.4455 155.685 27.5056 151.994 27.5056ZM132.965 33.9894H127.518V19.4169C127.518 14.781 130.998 11.4185 135.839 11.4185C140.56 11.4185 144.161 15.0239 144.161 19.4169C144.161 24.2641 140.953 27.4758 136.142 27.4758C135.022 27.4758 133.903 27.1425 132.965 26.6268V33.9894ZM135.839 22.3558C137.564 22.3558 138.714 21.0227 138.714 19.4467C138.714 17.8418 137.564 16.5385 135.839 16.5385C134.114 16.5385 132.965 17.8418 132.965 19.4476C132.965 21.0227 134.114 22.3558 135.839 22.3558ZM122.062 10.2679C120.276 10.2679 118.794 8.78313 118.794 6.99578C118.794 5.20844 120.276 3.72364 122.062 3.72364C123.847 3.72364 125.33 5.20844 125.33 6.99578C125.33 8.78313 123.847 10.2679 122.062 10.2679ZM119.339 11.8728H124.786V27.0215H119.339V11.8728ZM108.888 27.4758C104.168 27.4758 100.567 23.8406 100.567 19.4169C100.567 15.0239 104.168 11.3887 108.888 11.3887C113.609 11.3887 117.21 15.0239 117.21 19.4169C117.21 23.8406 113.609 27.4758 108.888 27.4758ZM108.888 22.3558C110.613 22.3558 111.763 21.0227 111.763 19.4467C111.763 17.8418 110.613 16.5087 108.888 16.5087C107.163 16.5087 106.014 17.8418 106.014 19.4467C106.014 21.0227 107.163 22.3558 108.888 22.3558ZM90.2824 34.4436C86.5308 34.4436 83.807 32.7773 82.4152 29.8077L86.9236 27.3846C87.4077 28.4151 88.3153 29.4754 90.1911 29.4754C92.1591 29.4754 93.4595 28.2326 93.6113 26.0515C92.8852 26.6882 91.7346 27.1723 90.0105 27.1723C85.8038 27.1723 82.4143 23.9309 82.4143 19.3862C82.4143 14.9942 86.016 11.4185 90.7366 11.4185C95.5783 11.4185 99.058 14.7819 99.058 19.4169V25.4157C99.058 30.8689 95.2748 34.4436 90.2824 34.4436ZM90.6454 22.0532C92.2792 22.0532 93.5201 20.9315 93.5201 19.2652C93.5201 17.6296 92.2801 16.5385 90.6454 16.5385C89.0415 16.5385 87.7708 17.6296 87.7708 19.2661C87.7708 20.9324 89.0415 22.0523 90.6454 22.0523V22.0532ZM73.176 27.4758C68.4553 27.4758 64.8536 23.8406 64.8536 19.4169C64.8536 15.0239 68.4553 11.3887 73.176 11.3887C77.8957 11.3887 81.4974 15.0239 81.4974 19.4169C81.4974 23.8406 77.8966 27.4758 73.176 27.4758ZM73.176 22.3558C74.9009 22.3558 76.0506 21.0227 76.0506 19.4467C76.0506 17.8418 74.9009 16.5087 73.176 16.5087C71.451 16.5087 70.3013 17.8418 70.3013 19.4467C70.3013 21.0227 71.451 22.3558 73.176 22.3558ZM54.9357 6.57222V21.8708H63.9535V27.0215H54.1789C50.7299 27.0215 49.3382 25.2034 49.3382 22.3251V6.57222H54.9357Z" fill="white"/>
</svg>
